<?xml version="1.0" encoding="utf-8"?>
<!-- Generator: Adobe Illustrator 24.1.2, SVG Export Plug-In . SVG Version: 6.00 Build 0)  -->
<svg version="1.1" xmlns="http://www.w3.org/2000/svg" xmlns:xlink="http://www.w3.org/1999/xlink" x="0px" y="0px"
	 viewBox="0 0 192 192" style="enable-background:new 0 0 192 192;" xml:space="preserve">
<style type="text/css">
	.st0{fill:none;}
	.st1{clip-path:url(#SVGID_2_);}
	.st2{fill:none;stroke:#000000;stroke-width:0.25;stroke-miterlimit:10;}
	.st3{opacity:0.4;}
	.st4{clip-path:url(#SVGID_4_);}
	.st5{display:none;}
	.st6{display:inline;fill:#616161;}
	.st7{display:inline;fill:#FFFFFF;fill-opacity:0.1;}
	.st8{display:inline;fill:#212121;fill-opacity:0.2;}
	.st9{display:inline;}
	.st10{fill:#9E9E9E;}
	.st11{display:inline;fill:#FFFFFF;fill-opacity:0.2;}
	.st12{display:inline;fill:#212121;fill-opacity:0.1;}
	.st13{fill:#2196F3;}
	.st14{opacity:0.2;fill:#FFFFFF;}
	.st15{opacity:0.2;fill:#0D47A1;}
	.st16{display:inline;fill:#F5F5F5;}
	.st17{fill:#F5F5F5;stroke:#231F20;stroke-width:0.25;stroke-miterlimit:10;}
	.st18{font-family:'MyriadPro-Regular';}
	.st19{font-size:108px;}
	.st20{fill:url(#SVGID_5_);}
</style>
<symbol  id="material_x5F_product_x5F_icon_x5F_border" viewBox="0 -192 192 192">
	<rect y="-192" class="st0" width="192" height="192"/>
</symbol>
<symbol  id="material_x5F_product_x5F_icon_x5F_grid" viewBox="0 -192 192 192">
	<g>
		<defs>
			<rect id="SVGID_1_" y="-192" width="192" height="192"/>
		</defs>
		<clipPath id="SVGID_2_">
			<use xlink:href="#SVGID_1_"  style="overflow:visible;"/>
		</clipPath>
		<g class="st1">
			<g>
				<line class="st2" x1="4" y1="-192" x2="4" y2="0"/>
				<line class="st2" x1="8" y1="-192" x2="8" y2="0"/>
				<line class="st2" x1="12" y1="-192" x2="12" y2="0"/>
				<line class="st2" x1="16" y1="-192" x2="16" y2="0"/>
				<line class="st2" x1="20" y1="-192" x2="20" y2="0"/>
				<line class="st2" x1="24" y1="-192" x2="24" y2="0"/>
				<line class="st2" x1="28" y1="-192" x2="28" y2="0"/>
				<line class="st2" x1="32" y1="-192" x2="32" y2="0"/>
				<line class="st2" x1="36" y1="-192" x2="36" y2="0"/>
				<line class="st2" x1="40" y1="-192" x2="40" y2="0"/>
				<line class="st2" x1="44" y1="-192" x2="44" y2="0"/>
				<line class="st2" x1="48" y1="-192" x2="48" y2="0"/>
				<line class="st2" x1="52" y1="-192" x2="52" y2="0"/>
				<line class="st2" x1="56" y1="-192" x2="56" y2="0"/>
				<line class="st2" x1="60" y1="-192" x2="60" y2="0"/>
				<line class="st2" x1="64" y1="-192" x2="64" y2="0"/>
				<line class="st2" x1="68" y1="-192" x2="68" y2="0"/>
				<line class="st2" x1="72" y1="-192" x2="72" y2="0"/>
				<line class="st2" x1="76" y1="-192" x2="76" y2="0"/>
				<line class="st2" x1="80" y1="-192" x2="80" y2="0"/>
				<line class="st2" x1="84" y1="-192" x2="84" y2="0"/>
				<line class="st2" x1="88" y1="-192" x2="88" y2="0"/>
				<line class="st2" x1="92" y1="-192" x2="92" y2="0"/>
				<line class="st2" x1="96" y1="-192" x2="96" y2="0"/>
				<line class="st2" x1="100" y1="-192" x2="100" y2="0"/>
				<line class="st2" x1="104" y1="-192" x2="104" y2="0"/>
				<line class="st2" x1="108" y1="-192" x2="108" y2="0"/>
				<line class="st2" x1="112" y1="-192" x2="112" y2="0"/>
				<line class="st2" x1="116" y1="-192" x2="116" y2="0"/>
				<line class="st2" x1="120" y1="-192" x2="120" y2="0"/>
				<line class="st2" x1="124" y1="-192" x2="124" y2="0"/>
				<line class="st2" x1="128" y1="-192" x2="128" y2="0"/>
				<line class="st2" x1="132" y1="-192" x2="132" y2="0"/>
				<line class="st2" x1="136" y1="-192" x2="136" y2="0"/>
				<line class="st2" x1="140" y1="-192" x2="140" y2="0"/>
				<line class="st2" x1="144" y1="-192" x2="144" y2="0"/>
				<line class="st2" x1="148" y1="-192" x2="148" y2="0"/>
				<line class="st2" x1="152" y1="-192" x2="152" y2="0"/>
				<line class="st2" x1="156" y1="-192" x2="156" y2="0"/>
				<line class="st2" x1="160" y1="-192" x2="160" y2="0"/>
				<line class="st2" x1="164" y1="-192" x2="164" y2="0"/>
				<line class="st2" x1="168" y1="-192" x2="168" y2="0"/>
				<line class="st2" x1="172" y1="-192" x2="172" y2="0"/>
				<line class="st2" x1="176" y1="-192" x2="176" y2="0"/>
				<line class="st2" x1="180" y1="-192" x2="180" y2="0"/>
				<line class="st2" x1="184" y1="-192" x2="184" y2="0"/>
				<line class="st2" x1="188" y1="-192" x2="188" y2="0"/>
			</g>
			<g>
				<line class="st2" x1="0" y1="-4" x2="192" y2="-4"/>
				<line class="st2" x1="0" y1="-8" x2="192" y2="-8"/>
				<line class="st2" x1="0" y1="-12" x2="192" y2="-12"/>
				<line class="st2" x1="0" y1="-16" x2="192" y2="-16"/>
				<line class="st2" x1="0" y1="-20" x2="192" y2="-20"/>
				<line class="st2" x1="0" y1="-24" x2="192" y2="-24"/>
				<line class="st2" x1="0" y1="-28" x2="192" y2="-28"/>
				<line class="st2" x1="0" y1="-32" x2="192" y2="-32"/>
				<line class="st2" x1="0" y1="-36" x2="192" y2="-36"/>
				<line class="st2" x1="0" y1="-40" x2="192" y2="-40"/>
				<line class="st2" x1="0" y1="-44" x2="192" y2="-44"/>
				<line class="st2" x1="0" y1="-48" x2="192" y2="-48"/>
				<line class="st2" x1="0" y1="-52" x2="192" y2="-52"/>
				<line class="st2" x1="0" y1="-56" x2="192" y2="-56"/>
				<line class="st2" x1="0" y1="-60" x2="192" y2="-60"/>
				<line class="st2" x1="0" y1="-64" x2="192" y2="-64"/>
				<line class="st2" x1="0" y1="-68" x2="192" y2="-68"/>
				<line class="st2" x1="0" y1="-72" x2="192" y2="-72"/>
				<line class="st2" x1="0" y1="-76" x2="192" y2="-76"/>
				<line class="st2" x1="0" y1="-80" x2="192" y2="-80"/>
				<line class="st2" x1="0" y1="-84" x2="192" y2="-84"/>
				<line class="st2" x1="0" y1="-88" x2="192" y2="-88"/>
				<line class="st2" x1="0" y1="-92" x2="192" y2="-92"/>
				<line class="st2" x1="0" y1="-96" x2="192" y2="-96"/>
				<line class="st2" x1="0" y1="-100" x2="192" y2="-100"/>
				<line class="st2" x1="0" y1="-104" x2="192" y2="-104"/>
				<line class="st2" x1="0" y1="-108" x2="192" y2="-108"/>
				<line class="st2" x1="0" y1="-112" x2="192" y2="-112"/>
				<line class="st2" x1="0" y1="-116" x2="192" y2="-116"/>
				<line class="st2" x1="0" y1="-120" x2="192" y2="-120"/>
				<line class="st2" x1="0" y1="-124" x2="192" y2="-124"/>
				<line class="st2" x1="0" y1="-128" x2="192" y2="-128"/>
				<line class="st2" x1="0" y1="-132" x2="192" y2="-132"/>
				<line class="st2" x1="0" y1="-136" x2="192" y2="-136"/>
				<line class="st2" x1="0" y1="-140" x2="192" y2="-140"/>
				<line class="st2" x1="0" y1="-144" x2="192" y2="-144"/>
				<line class="st2" x1="0" y1="-148" x2="192" y2="-148"/>
				<line class="st2" x1="0" y1="-152" x2="192" y2="-152"/>
				<line class="st2" x1="0" y1="-156" x2="192" y2="-156"/>
				<line class="st2" x1="0" y1="-160" x2="192" y2="-160"/>
				<line class="st2" x1="0" y1="-164" x2="192" y2="-164"/>
				<line class="st2" x1="0" y1="-168" x2="192" y2="-168"/>
				<line class="st2" x1="0" y1="-172" x2="192" y2="-172"/>
				<line class="st2" x1="0" y1="-176" x2="192" y2="-176"/>
				<line class="st2" x1="0" y1="-180" x2="192" y2="-180"/>
				<line class="st2" x1="0" y1="-184" x2="192" y2="-184"/>
				<line class="st2" x1="0" y1="-188" x2="192" y2="-188"/>
			</g>
			<g>
				<path d="M191.8-0.3v-191.5H0.3V-0.3H191.8 M192,0H0v-192h192V0L192,0z"/>
			</g>
		</g>
	</g>
</symbol>
<symbol  id="material_x5F_product_x5F_icon_x5F_keylines" viewBox="0 -192 192 192">
	<g class="st3">
		<defs>
			<path id="SVGID_3_" class="st3" d="M0,0v-192h192V0H0z"/>
		</defs>
		<clipPath id="SVGID_4_">
			<use xlink:href="#SVGID_3_"  style="overflow:visible;"/>
		</clipPath>
		<g class="st4">
			<line class="st2" x1="0.2" y1="-0.2" x2="191.7" y2="-191.7"/>
			<g>
				<path d="M191.8-0.2v-191.5H0.2V-0.2H191.8 M192,0H0v-192h192V0L192,0z"/>
			</g>
			<line class="st2" x1="191.7" y1="-0.2" x2="0.2" y2="-191.7"/>
			<line class="st2" x1="124" y1="0" x2="124" y2="-192"/>
			<line class="st2" x1="68" y1="0" x2="68" y2="-192"/>
			<line class="st2" x1="192" y1="-124" x2="0" y2="-124"/>
			<line class="st2" x1="192" y1="-68" x2="0" y2="-68"/>
			<circle class="st2" cx="96" cy="-96" r="40"/>
			<line class="st2" x1="0" y1="-96" x2="192" y2="-96"/>
			<line class="st2" x1="96" y1="0" x2="96" y2="-192"/>
		</g>
		<g class="st4">
			<g>
				<path d="M96-8.2c48.4,0,87.8-39.4,87.8-87.8s-39.4-87.7-87.8-87.7S8.2-144.4,8.2-96S47.6-8.2,96-8.2 M96-8C47.4-8,8-47.4,8-96
					s39.4-88,88-88c48.6,0,88,39.4,88,88S144.6-8,96-8L96-8z"/>
			</g>
		</g>
		<g class="st4">
			<g>
				<path d="M160-20.2c6.5,0,11.8-5.3,11.8-11.8v-128c0-6.5-5.3-11.8-11.8-11.8H32c-6.5,0-11.8,5.3-11.8,11.8v128
					c0,6.5,5.3,11.8,11.8,11.8H160 M160-20H32c-6.6,0-12-5.4-12-12v-128c0-6.6,5.4-12,12-12h128c6.6,0,12,5.4,12,12v128
					C172-25.4,166.6-20,160-20L160-20z"/>
			</g>
		</g>
		<g class="st4">
			<g>
				<path d="M148-8.2c6.5,0,11.8-5.3,11.8-11.8v-152c0-6.5-5.3-11.8-11.8-11.8H44c-6.5,0-11.8,5.3-11.8,11.8v152
					c0,6.5,5.3,11.8,11.8,11.8H148 M148-8H44c-6.6,0-12-5.4-12-12v-152c0-6.6,5.4-12,12-12h104c6.6,0,12,5.4,12,12v152
					C160-13.4,154.6-8,148-8L148-8z"/>
			</g>
		</g>
		<g class="st4">
			<g>
				<path d="M172-32.2c6.5,0,11.8-5.3,11.8-11.8v-104c0-6.5-5.3-11.8-11.8-11.8H20c-6.5,0-11.8,5.3-11.8,11.8v104
					c0,6.5,5.3,11.8,11.8,11.8H172 M172-32H20c-6.6,0-12-5.4-12-12v-104c0-6.6,5.4-12,12-12h152c6.6,0,12,5.4,12,12v104
					C184-37.4,178.6-32,172-32L172-32z"/>
			</g>
		</g>
	</g>
</symbol>
<g id="back" class="st5">
	<path class="st6" d="M160,172H32c-6.6,0-12-5.4-12-12V32c0-6.6,5.4-12,12-12h128c6.6,0,12,5.4,12,12v128
		C172,166.6,166.6,172,160,172z"/>
</g>
<g id="back_x2C__edge" class="st5">
	<path class="st7" d="M160,20H32c-6.6,0-12,5.4-12,12v1c0-6.6,5.4-12,12-12h128c6.6,0,12,5.4,12,12v-1C172,25.4,166.6,20,160,20z"/>
	<path class="st8" d="M160,172H32c-6.6,0-12-5.4-12-12v-1c0,6.6,5.4,12,12,12h128c6.6,0,12-5.4,12-12v1C172,166.6,166.6,172,160,172
		z"/>
</g>
<g id="front" class="st5">
	<g class="st9">
		<g>
			
				<image style="overflow:visible;opacity:0.2;" width="434" height="434" xlink:href="7C5E8831.png"  transform="matrix(0.24 0 0 0.24 44.0005 48.0005)">
			</image>
			<circle class="st10" cx="96" cy="96" r="40"/>
		</g>
	</g>
</g>
<g id="front_x2C__edge" class="st5">
	<path class="st11" d="M96,57c21.9,0,39.7,17.6,40,39.5c0-0.2,0-0.3,0-0.5c0-22.1-17.9-40-40-40S56,73.9,56,96c0,0.2,0,0.3,0,0.5
		C56.3,74.6,74.1,57,96,57z"/>
	<path class="st12" d="M96,136c21.9,0,39.7-17.6,40-39.5c0,0.2,0,0.3,0,0.5c0,22.1-17.9,40-40,40s-40-17.9-40-40c0-0.2,0-0.3,0-0.5
		C56.3,118.4,74.1,136,96,136z"/>
</g>
<g id="border" class="st5">
	
		<use xlink:href="#material_x5F_product_x5F_icon_x5F_border"  width="192" height="192" y="-192" transform="matrix(1 0 0 -1 4.882813e-04 4.882813e-04)" style="display:inline;overflow:visible;"/>
</g>
<g id="grid" class="st5">
	
		<use xlink:href="#material_x5F_product_x5F_icon_x5F_grid"  width="192" height="192" id="XMLID_1_" y="-192" transform="matrix(1 0 0 -1 4.882813e-04 4.882813e-04)" style="display:inline;overflow:visible;opacity:0.15;"/>
</g>
<g id="keylines" class="st5">
	
		<use xlink:href="#material_x5F_product_x5F_icon_x5F_keylines"  width="192" height="192" id="XMLID_2_" x="0" y="-192" transform="matrix(1 0 0 -1 4.882813e-04 4.882813e-04)" style="display:inline;overflow:visible;"/>
</g>
<g id="Background">
	<path class="st13" d="M160,172H32c-6.6,0-12-5.4-12-12V32c0-6.6,5.4-12,12-12h128c6.6,0,12,5.4,12,12v128
		C172,166.6,166.6,172,160,172z"/>
	<path class="st14" d="M160,20H32c-6.6,0-12,5.4-12,12v1c0-6.6,5.4-12,12-12h128c6.6,0,12,5.4,12,12v-1C172,25.4,166.6,20,160,20z"
		/>
	<path class="st15" d="M32,172h128c6.6,0,12-5.4,12-12v-1c0,6.6-5.4,12-12,12H32c-6.6,0-12-5.4-12-12v1C20,166.6,25.4,172,32,172z"
		/>
</g>
<g id="Foreground" class="st5">
	<circle class="st16" cx="96" cy="96" r="40"/>
</g>
<g id="Text">
	<text id="B" transform="matrix(1 0 0 1 66.7324 127.6985)" class="st17 st18 st19">B</text>
</g>
<g id="finish">
	<radialGradient id="SVGID_5_" cx="23.7681" cy="23.9337" r="204.6249" gradientUnits="userSpaceOnUse">
		<stop  offset="0" style="stop-color:#FFFFFF;stop-opacity:0.1"/>
		<stop  offset="1" style="stop-color:#FFFFFF;stop-opacity:0"/>
	</radialGradient>
	<path class="st20" d="M160,172H32c-6.6,0-12-5.4-12-12V32c0-6.6,5.4-12,12-12h128c6.6,0,12,5.4,12,12v128
		C172,166.6,166.6,172,160,172z"/>
</g>
</svg>
