<svg xmlns="http://www.w3.org/2000/svg" xmlns:xlink="http://www.w3.org/1999/xlink" viewBox="0 0 192 192"><defs><style>.cls-1{fill:#2196f3;}.cls-2{fill:#fff;}.cls-2,.cls-3{opacity:0.2;}.cls-3{fill:#0d47a1;}.cls-4{font-size:108px;fill:#f5f5f5;stroke:#231f20;stroke-miterlimit:10;stroke-width:0.25px;font-family:MyriadPro-Regular, Myriad Pro;}.cls-5{fill:url(#radial-gradient);}</style><radialGradient id="radial-gradient" cx="23.77" cy="23.93" r="204.62" gradientUnits="userSpaceOnUse"><stop offset="0" stop-color="#fff" stop-opacity="0.1"/><stop offset="1" stop-color="#fff" stop-opacity="0"/></radialGradient></defs><g id="Background"><rect class="cls-1" x="20" y="20" width="152" height="152" rx="12"/><path class="cls-2" d="M160,20H32A12,12,0,0,0,20,32v1A12,12,0,0,1,32,21H160a12,12,0,0,1,12,12V32A12,12,0,0,0,160,20Z"/><path class="cls-3" d="M32,172H160a12,12,0,0,0,12-12v-1a12,12,0,0,1-12,12H32a12,12,0,0,1-12-12v1A12,12,0,0,0,32,172Z"/></g><g id="Text"><text id="B" class="cls-4" transform="translate(66.73 127.7)">B</text></g><g id="finish"><rect class="cls-5" x="20" y="20" width="152" height="152" rx="12"/></g></svg>