<?xml version="1.0" encoding="utf-8"?>
<!-- Generator: Adobe Illustrator 24.1.2, SVG Export Plug-In . SVG Version: 6.00 Build 0)  -->
<svg version="1.1" id="Layer_1" xmlns="http://www.w3.org/2000/svg" xmlns:xlink="http://www.w3.org/1999/xlink" x="0px" y="0px"
	 viewBox="0 0 592 592" style="enable-background:new 0 0 592 592;" xml:space="preserve">
<style type="text/css">
	.st0{fill:#2E3192;}
</style>
<g>
	<path class="st0" d="M296,90c55.02,0,106.76,21.43,145.66,60.34S502,240.98,502,296s-21.43,106.76-60.34,145.66
		C402.76,480.57,351.02,502,296,502s-106.76-21.43-145.66-60.34S90,351.02,90,296s21.43-106.76,60.34-145.66S240.98,90,296,90
		 M296,40C154.62,40,40,154.62,40,296c0,141.38,114.62,256,256,256c141.38,0,256-114.62,256-256C552,154.62,437.38,40,296,40L296,40
		z"/>
</g>
<g>
	<g>
		<path class="st0" d="M232.39,196.14c11.38-2.43,29.33-4.26,47.59-4.26c26.04,0,42.81,4.56,55.38,14.9
			c10.48,7.9,16.76,20.06,16.76,36.18c0,19.76-12.87,37.09-34.12,44.99v0.61c19.16,4.86,41.61,20.98,41.61,51.38
			c0,17.63-6.88,31.01-17.06,41.04c-14.07,13.07-36.82,19.15-69.74,19.15c-17.96,0-31.73-1.22-40.41-2.43V196.14z M258.43,280.04
			h23.65c27.54,0,43.7-14.59,43.7-34.35c0-24.02-17.96-33.44-44.3-33.44c-11.97,0-18.86,0.91-23.05,1.82V280.04z M258.43,378.23
			c5.09,0.91,12.57,1.22,21.85,1.22c26.94,0,51.78-10.03,51.78-39.82c0-27.97-23.65-39.52-52.08-39.52h-21.55V378.23z"/>
	</g>
</g>
</svg>
